Coordinates
version=1
nRows=21
nColumns=33
inDegrees=yes

Units are S.I. units (second, meters, Newtons, ...)
Angles are in degrees.

endheader
time	ground_thorax_rot_x	ground_thorax_rot_y	ground_thorax_rot_z	ground_thorax_tx	ground_thorax_ty	ground_thorax_tz	clav_prot_r	clav_elev_r	scapula_abduction_r	scapula_elevation_r	scapula_upward_rot_r	scapula_winging_r	shoulder_elv_r	plane_of_elev_r	axial_rot_r	elbow_flexion_r	pro_sup_r	wrist_flex_r	wrist_dev_r	clav_prot_l	clav_elev_l	scapula_abduction_l	scapula_elevation_l	scapula_upward_rot_l	scapula_winging_l	shoulder_elv_l	plane_of_elev_l	axial_rot_l	elbow_flexion_l	pro_sup_l	wrist_flex_l	wrist_dev_l
      3.64000000	    -38.01799508	      7.09089868	     -3.81087359	     36.63154080	    757.57457106	    -32.79268214	     11.79731961	    -45.00000000	     45.00000000	    -45.00000000	      1.25965621	  -2611.59518704	  -2451.47748644	     17.39869161	   -153.92338750	   1440.99214409	   -193.39759920	     11.71201915	     13.54120473	     18.16863263	     25.59894286	    -44.37410360	    -42.93577911	    -45.00000000	  -2811.48353552	  -1703.84736744	     19.80112233	   -179.99999979	   1796.50357455	    132.63375287	     10.33505951	     -9.25877883
      3.65000000	    -38.19882896	      6.45194650	     -3.16756630	     33.98975557	    758.10803342	    -32.87015192	     12.29013912	    -45.00000000	     45.00000000	    -45.00000000	      0.23278284	  -2611.89621695	  -2451.45853863	     17.45888835	   -153.78779750	   1441.01152310	   -193.07097126	     11.72857832	     13.63762087	     17.41870008	     25.48182280	    -43.63468428	    -43.07376589	    -45.00000000	  -2811.54734039	  -1704.02135905	     19.68848191	   -179.99999979	   1796.61810361	    133.49146820	     10.41749522	     -9.31730690
      3.66000000	    -38.38938259	      5.61202589	     -2.33916521	     31.23655865	    758.70734153	    -32.95668745	     12.93833557	    -45.00000000	     45.00000000	    -45.00000000	     -1.12113964	  -2612.11648004	  -2451.38639740	     17.46476489	   -153.61126676	   1440.98108854	   -192.76954327	     11.80891632	     13.68034809	     16.76484284	     25.49981600	    -42.75712518	    -43.25298268	    -45.00000000	  -2811.65456021	  -1704.26037392	     19.59132347	   -179.99999979	   1796.80692925	    134.60375292	     10.52084201	     -9.34980608
      3.67000000	    -34.77184393	    -21.40908547	     29.09219059	     28.37203834	    759.39226490	    -33.05162830	     24.50169502	    -45.00000000	     35.30754034	    -45.00000000	    -45.00000000	  -2611.69949902	  -2448.05202979	     19.38873061	   -149.96184596	   1441.12844325	   -190.85212671	     12.09880847	     13.68134729	      3.30989617	     27.31558070	    -26.28445632	    -45.00000000	    -45.00000000	  -2809.45865488	  -1708.04705949	     16.40261050	   -179.99999979	   1802.80961179	    173.09052011	     12.27350938	    -11.74814497
      3.68000000	    -35.27057787	    -20.82422665	     28.24910437	     25.40721018	    760.12993616	    -33.15468391	     24.67772640	    -45.00000000	     34.97058899	    -45.00000000	    -45.00000000	  -2611.28974332	  -2447.92412339	     19.31691563	   -150.48570317	   1441.14771337	   -191.34514658	     11.97751899	     13.79996895	      3.80156106	     27.09224810	    -26.78302929	    -45.00000000	    -45.00000000	  -2808.95673621	  -1707.95848244	     16.61707260	   -179.99999979	   1802.73091650	    175.31082171	     12.01712257	    -12.22294396
      3.69000000	    -35.41834641	    -20.60146928	     27.99150154	     22.33779610	    760.93902234	    -33.26482845	     24.65989534	    -45.00000000	     34.99697775	    -45.00000000	    -45.00000000	  -2611.53441831	  -2447.80912918	     19.33172645	   -150.31053930	   1441.09734624	   -191.41291051	     12.02368274	     13.80603510	      3.77264427	     27.20602617	    -26.78230448	    -45.00000000	    -45.00000000	  -2808.76219701	  -1707.81116616	     16.64282216	   -179.99999979	   1802.68411261	    176.64076784	     11.95288064	    -12.49803437
      3.70000000	    -35.56716443	    -20.40585731	     27.74384485	     19.16348604	    761.82064300	    -33.38205673	     24.66670255	    -45.00000000	     34.98039613	    -45.00000000	    -45.00000000	  -2611.75572394	  -2447.71061662	     19.36612839	   -150.35387814	   1441.08736910	   -191.34331826	     12.04633904	     13.88061725	      3.65436218	     27.28557954	    -26.84596671	    -45.00000000	    -45.00000000	  -2808.43709067	  -1707.75599513	     16.71594137	   -179.99999979	   1802.69946998	    177.58239519	     11.94098599	    -12.67348970
      3.71000000	    -35.69281023	    -20.22866225	     27.46263819	     15.89206300	    762.77240469	    -33.50618431	     24.68426109	    -45.00000000	     35.08822106	    -45.00000000	    -45.00000000	  -2611.98579389	  -2447.63000132	     19.40655741	   -150.36199732	   1441.06525786	   -191.17723545	     12.11272537	     13.91382318	      3.48519062	     27.41736507	    -26.85970965	    -45.00000000	    -45.00000000	  -2808.18596854	  -1707.68824791	     16.76908987	   -179.99999979	   1802.77078255	    178.27602489	     11.92677144	    -12.80514656
      3.72000000	    -35.93144812	    -19.86950606	     26.99366031	     12.51764297	    763.79655931	    -33.63784887	     24.63028955	    -45.00000000	     34.97039175	    -45.00000000	    -45.00000000	  -2612.13907505	  -2447.48014344	     19.48115409	   -150.34562972	   1441.00520159	   -190.98079081	     12.22554864	     13.89985341	      3.63287091	     27.42702150	    -26.93098236	    -45.00000000	    -45.00000000	  -2808.03646508	  -1707.48135760	     16.75844185	   -179.99999979	   1802.68227327	    178.73189984	     11.85689109	    -12.95543363
      3.73000000	    -36.11948893	    -19.60190089	     26.59305913	      9.05192197	    764.89162210	    -33.77686656	     24.60781598	    -45.00000000	     34.96201364	    -45.00000000	    -45.00000000	  -2612.32109591	  -2447.39082365	     19.53551770	   -150.46327270	   1440.98327825	   -190.78535389	     12.30281686	     13.96696381	      3.54209723	     27.51116030	    -26.99427651	    -45.00000000	    -45.00000000	  -2807.79211919	  -1707.39338223	     16.81080679	   -179.99999979	   1802.70696365	    179.10929165	     11.87769364	    -13.04992185
      3.74000000	    -36.36210463	    -19.20310761	     26.06689908	      5.49442401	    766.06096469	    -33.92309882	     24.54721034	    -45.00000000	     34.85506108	    -45.00000000	    -45.00000000	  -2612.48218087	  -2447.27417102	     19.61348307	   -150.56019522	   1440.95441014	   -190.60750955	     12.39468364	     14.00734552	      3.62415820	     27.55127415	    -27.05342495	    -45.00000000	    -45.00000000	  -2807.60008737	  -1707.23776562	     16.89684999	   -179.99999979	   1802.63409577	    179.39513596	     11.86458802	    -13.16333972
      3.75000000	    -36.40841462	    -19.08782212	     25.85676365	      1.86144255	    767.30521425	    -34.07522420	     24.57187412	    -45.00000000	     35.07025894	    -45.00000000	    -45.00000000	  -2612.79205444	  -2447.19183490	     19.57458480	   -150.76041202	   1440.93127195	   -190.45480713	     12.49039999	     14.07350798	      3.25668175	     27.72311359	    -27.08191430	    -45.00000000	    -45.00000000	  -2807.31595307	  -1707.29490215	     16.89928430	   -179.99999979	   1802.66321073	    179.72481871	     11.92528210	    -13.27915859
      3.76000000	    -36.64681946	    -18.76628191	     25.34374484	     -1.83872379	    768.62819683	    -34.23213058	     24.54289339	    -45.00000000	     35.01174511	    -45.00000000	    -45.00000000	  -2612.96300473	  -2447.09070795	     19.66077357	   -150.83002471	   1440.93575914	   -190.33500446	     12.56394532	     14.13643252	      3.25807791	     27.77123301	    -27.11136786	    -45.00000000	    -45.00000000	  -2807.11258620	  -1707.12970349	     16.96482047	   -179.99999979	   1802.62592896	    180.02449553	     11.93451228	    -13.38988542
      3.77000000	    -37.05743898	    -18.10016306	     24.46994818	     -5.59427238	    770.03439945	    -34.39280697	     24.37197399	    -45.00000000	     34.63440480	    -45.00000000	    -45.00000000	  -2612.93153853	  -2446.92713939	     19.79877537	   -150.80738169	   1440.87347735	   -190.27083271	     12.68295046	     14.08822611	      3.77221305	     27.65725684	    -27.30020334	    -45.00000000	    -45.00000000	  -2807.07915729	  -1706.82386301	     16.95835172	   -179.99999979	   1802.43094875	    180.18635393	     11.83864288	    -13.52656164
      3.78000000	    -37.06025935	    -18.10119132	     24.33663113	     -9.39078582	    771.52765430	    -34.55711261	     24.42913066	    -45.00000000	     34.92575760	    -45.00000000	    -45.00000000	  -2613.30489196	  -2446.86036437	     19.75457872	   -151.01116853	   1440.87748192	   -190.26743361	     12.72600989	     14.24641254	      3.19107352	     27.89615499	    -27.26722114	    -45.00000000	    -45.00000000	  -2806.67808295	  -1706.91736202	     17.03213502	   -179.99999979	   1802.55786094	    180.46917040	     12.00010809	    -13.60894815
      3.79000000	    -37.17028127	    -17.88994705	     24.05065632	    -13.20911809	    773.10816802	    -34.72495013	     24.55755245	    -45.00000000	     35.07030019	    -45.00000000	    -45.00000000	  -2613.65093877	  -2446.80779386	     19.75541615	   -150.98449608	   1440.89745760	   -190.30897297	     12.77440603	     14.26684394	      2.96119891	     27.97878291	    -27.23377239	    -45.00000000	    -45.00000000	  -2806.48478029	  -1706.78086949	     17.05978006	   -179.99999979	   1802.48975420	    180.80355559	     11.98897725	    -13.75847834
      3.80000000	    -37.37697633	    -17.57367986	     23.47262118	    -17.03477531	    774.77563661	    -34.89696680	     24.49915115	    -45.00000000	     34.98198177	    -45.00000000	    -45.00000000	  -2613.78675671	  -2446.68160912	     19.83948451	   -151.01734601	   1440.83347987	   -190.42026078	     12.82527136	     14.34700144	      2.97382524	     28.02962098	    -27.28263445	    -45.00000000	    -45.00000000	  -2806.26659138	  -1706.71962730	     17.08944190	   -179.99999979	   1802.46189350	    181.15386130	     12.04117011	    -13.87921176
      3.81000000	    -37.56523962	    -17.23039434	     22.97554630	    -20.86187942	    776.53212048	    -35.07393663	     24.43935517	    -45.00000000	     34.96142491	    -45.00000000	    -45.00000000	  -2613.98332030	  -2446.55004826	     19.88415150	   -151.09074939	   1440.77941416	   -190.57894858	     12.87256872	     14.39628626	      2.93902535	     28.09404320	    -27.38246966	    -45.00000000	    -45.00000000	  -2806.06186312	  -1706.61859657	     17.11375495	   -179.99999979	   1802.41497290	    181.46127285	     12.06454734	    -14.01206244
      3.82000000	    -37.71035879	    -16.95027880	     22.55257986	    -24.68023879	    778.37580252	    -35.25585473	     24.47422604	    -45.00000000	     34.99462363	    -45.00000000	    -45.00000000	  -2614.23674066	  -2446.45490454	     19.92438634	   -151.10971637	   1440.76198268	   -190.77152817	     12.90027390	     14.44081513	      2.82123948	     28.16388059	    -27.38470037	    -45.00000000	    -45.00000000	  -2805.84967667	  -1706.51335882	     17.15343869	   -179.99999979	   1802.33979786	    181.81719064	     12.07323978	    -14.16687740
      3.83000000	    -37.89826223	    -16.62462814	     22.05112054	    -28.47920412	    780.30427316	    -35.44202432	     24.44985676	    -45.00000000	     34.95030866	    -45.00000000	    -45.00000000	  -2614.42965631	  -2446.35171950	     19.97919804	   -151.15670441	   1440.71170439	   -190.99879608	     12.92748758	     14.49879481	      2.80386464	     28.22131241	    -27.43131493	    -45.00000000	    -45.00000000	  -2805.65393861	  -1706.39515582	     17.19225685	   -179.99999979	   1802.33168138	    182.20583250	     12.08584954	    -14.29558511
      3.84000000	    -38.14380206	    -16.18570006	     21.42464643	    -32.25604886	    782.31855429	    -35.63179316	     24.28388069	    -45.00000000	     34.80464060	    -45.00000000	    -45.00000000	  -2614.54257007	  -2446.21163854	     20.06888723	   -151.25744022	   1440.65968968	   -191.24534641	     12.94364077	     14.58888876	      2.89843918	     28.27004173	    -27.56080907	    -45.00000000	    -45.00000000	  -2805.43667758	  -1706.25293637	     17.28782376	   -179.99999979	   1802.30980934	    182.54953261	     12.12859352	    -14.41510312
